<svg width="930" height="201" viewBox="0 0 930 201" fill="none" xmlns="http://www.w3.org/2000/svg">
<path d="M481.013 143.146C472.981 138.568 466.675 132.262 462.096 124.155C457.518 116.048 455.266 106.891 455.266 96.682C455.266 86.4733 457.518 77.1654 462.096 69.0585C466.675 60.9516 472.981 54.6463 481.013 50.1425C489.044 45.6386 498.202 43.3867 508.336 43.3867C516.743 43.3867 524.474 45.0381 531.38 48.3409C538.286 51.6437 543.916 56.4478 548.195 62.7532L540.763 68.1578C537.01 62.9033 532.356 59 526.801 56.3728C521.247 53.7455 515.091 52.4694 508.411 52.4694C500.229 52.4694 492.848 54.4462 486.267 58.3998C479.686 62.3534 474.58 68.0838 470.949 75.591C467.318 83.0982 465.503 91.7313 465.503 101.49C465.503 111.249 467.318 119.882 470.949 127.389C474.58 134.896 479.686 140.627 486.267 144.58C492.848 148.534 500.229 150.511 508.411 150.511C515.091 150.511 521.247 149.235 526.801 146.683C532.356 144.131 537.01 140.177 540.763 134.823L548.195 141.177C543.916 147.483 538.286 152.287 531.38 155.59C524.474 158.893 516.743 160.544 508.336 160.544C498.202 160.544 489.044 158.292 481.013 153.789C472.981 149.285 466.675 143.146 462.096 135.039C457.518 126.932 455.266 117.775 455.266 107.568C455.266 97.3608 457.518 88.0529 462.096 79.946C466.675 71.8391 472.981 65.5338 481.013 60.0292C489.044 54.5246 498.202 51.7723 508.336 51.7723C516.743 51.7723 524.474 53.4237 531.38 56.7265C538.286 60.0292 543.916 64.8334 548.195 71.1387L540.763 77.4441C537.01 72.1896 532.356 68.2865 526.801 65.7348C521.247 63.1831 515.091 61.9072 508.411 61.9072C500.229 61.9072 492.848 63.8841 486.267 67.8377C479.686 71.7913 474.58 77.5217 470.949 85.029C467.318 92.5362 465.503 101.169 465.503 110.928C465.503 120.687 467.318 129.32 470.949 136.827C474.58 144.334 479.686 150.065 486.267 154.018C492.848 157.972 500.229 159.949 508.411 159.949C515.091 159.949 521.247 158.673 526.801 156.121C532.356 153.569 537.01 149.615 540.763 144.261L548.195 150.615C543.916 156.921 538.286 161.725 531.38 165.028C524.474 168.331 516.743 169.982 508.336 169.982C498.202 169.982 489.044 167.73 481.013 163.227C472.981 158.723 466.675 152.584 462.096 144.477C457.518 136.37 455.266 127.213 455.266 117.006C455.266 106.799 457.518 97.4909 462.096 89.3841C466.675 81.2772 472.981 74.9719 481.013 69.4673C489.044 63.9627 498.202 61.2104 508.336 61.2104C516.743 61.2104 524.474 62.8618 531.38 66.1646C538.286 69.4673 543.916 74.2715 548.195 80.5768L540.763 86.8822C537.01 81.6277 532.356 77.7246 526.801 75.1729C521.247 72.6212 515.091 71.3453 508.411 71.3453C500.229 71.3453 492.848 73.3222 486.267 77.2758C479.686 81.2294 474.58 86.9598 470.949 94.4671C467.318 101.974 465.503 110.607 465.503 120.366C465.503 130.125 467.318 138.758 470.949 146.265C474.58 153.772 479.686 159.503 486.267 163.456C492.848 167.41 500.229 169.387 508.411 169.387C515.091 169.387 521.247 168.111 526.801 165.559C532.356 163.007 537.01 159.053 540.763 153.699L548.195 160.053C543.916 166.359 538.286 171.163 531.38 174.466C524.474 177.769 516.743 179.42 508.336 179.42C498.202 179.42 489.044 177.168 481.013 172.665C472.981 168.161 466.675 162.022 462.096 153.915C457.518 145.808 455.266 136.651 455.266 126.444C455.266 116.237 457.518 106.929 462.096 98.8221C466.675 90.7152 472.981 84.4099 481.013 78.9053C489.044 73.4007 498.202 70.6484 508.336 70.6484C516.743 70.6484 524.474 72.2998 531.38 75.6026C538.286 78.9053 543.916 83.7095 548.195 90.0148L540.763 96.3202C537.01 91.0657 532.356 87.1626 526.801 84.6109C521.247 82.0592 515.091 80.7833 508.411 80.7833C500.229 80.7833 492.848 82.7602 486.267 86.7138C479.686 90.6674 474.58 96.3978 470.949 103.905C467.318 111.412 465.503 120.045 465.503 129.804C465.503 139.563 467.318 148.196 470.949 155.703C474.58 163.21 479.686 168.941 486.267 172.894C492.848 176.848 500.229 178.825 508.411 178.825C515.091 178.825 521.247 177.549 526.801 174.997C532.356 172.445 537.01 168.491 540.763 163.137L548.195 169.491C543.916 175.797 538.286 180.601 531.38 183.904C524.474 187.207 516.743 188.858 508.336 188.858C498.202 188.858 489.044 186.606 481.013 182.103C472.981 177.599 466.675 171.46 462.096 163.353C457.518 155.246 455.266 146.089 455.266 135.882C455.266 125.675 457.518 116.367 462.096 108.26C466.675 100.153 472.981 93.8477 481.013 88.3431C489.044 82.8385 498.202 80.0862 508.336 80.0862C516.743 80.0862 524.474 81.7376 531.38 85.0404C538.286 88.3431 543.916 93.1473 548.195 99.4526L540.763 105.758C537.01 100.504 532.356 96.6004 526.801 94.0487C521.247 91.497 515.091 90.2211 508.411 90.2211C500.229 90.2211 492.848 92.198 486.267 96.1516C479.686 100.105 474.58 105.836 470.949 113.343C467.318 120.85 465.503 129.483 465.503 139.242C465.503 149.001 467.318 157.634 470.949 165.141C474.58 172.648 479.686 178.379 486.267 182.332C492.848 186.286 500.229 188.263 508.411 188.263C515.091 188.263 521.247 186.987 526.801 184.435C532.356 181.883 537.01 177.929 540.763 172.575L548.195 178.929C543.916 185.235 538.286 190.039 531.38 193.342C524.474 196.645 516.743 198.296 508.336 198.296C498.202 198.296 489.044 196.044 481.013 191.541C472.981 187.037 466.675 180.898 462.096 172.791C457.518 164.684 455.266 155.527 455.266 145.32C455.266 135.113 457.518 125.805 462.096 117.698C466.675 109.591 472.981 103.286 481.013 97.7814C489.044 92.2768 498.202 89.5245 508.336 89.5245C516.743 89.5245 524.474 91.1759 531.38 94.4787C538.286 97.7814 543.916 102.586 548.195 108.891L540.763 115.196C537.01 109.942 532.356 106.039 526.801 103.487C521.247 100.935 515.091 99.6593 508.411 99.6593C500.229 99.6593 492.848 101.636 486.267 105.59C479.686 109.543 474.58 115.274 470.949 122.781C467.318 130.288 465.503 138.921 465.503 148.68C465.503 158.439 467.318 167.072 470.949 174.579C474.58 182.086 479.686 187.817 486.267 191.77C492.848 195.724 500.229 197.701 508.411 197.701C515.091 197.701 521.247 196.425 526.801 193.873C532.356 191.321 537.01 187.367 540.763 182.013L548.195 188.367C543.916 194.673 538.286 199.477 531.38 202.78C524.474 206.083 516.743 207.734 508.336 207.734C498.202 207.734 489.044 205.482 481.013 200.979C472.981 196.475 466.675 190.336 462.096 182.229C457.518 174.122 455.266 164.965 455.266 154.758C455.266 144.551 457.518 135.243 462.096 127.136C466.675 119.029 472.981 112.724 481.013 107.219C489.044 101.715 498.202 98.9623 508.336 98.9623C516.743 98.9623 524.474 100.614 531.38 103.916C538.286 107.219 543.916 112.023 548.195 118.329L540.763 124.634C537.01 119.38 532.356 115.477 526.801 112.925C521.247 110.373 515.091 109.097 508.411 109.097C500.229 109.097 492.848 111.074 486.267 115.028C479.686 118.981 474.58 124.712 470.949 132.219C467.318 139.726 465.503 148.359 465.503 158.118C465.503 167.877 467.318 176.51 470.949 184.017C474.58 191.524 479.686 197.255 486.267 201.208C492.848 205.162 500.229 207.139 508.411 207.139C515.091 207.139 521.247 205.863 526.801 203.311C532.356 200.759 537.01 196.805 540.763 191.451L548.195 197.805C543.916 204.111 538.286 208.915 531.38 212.218C524.474 215.521 516.743 217.172 508.336 217.172C498.202 217.172 489.044 214.92 481.013 210.417C472.981 205.913 466.675 199.774 462.096 191.667C457.518 183.56 455.266 174.403 455.266 164.196C455.266 153.989 457.518 144.681 462.096 136.574C466.675 128.467 472.981 122.162 481.013 116.657C489.044 111.153 498.202 108.4 508.336 108.4C516.743 108.4 524.474 110.052 531.38 113.354C538.286 116.657 543.916 121.461 548.195 127.767L540.763 134.072C537.01 128.818 532.356 124.915 526.801 122.363C521.247 119.811 515.091 118.535 508.411 118.535C500.229 118.535 492.848 120.512 486.267 124.466C479.686 128.419 474.58 134.15 470.949 141.657C467.318 149.164 465.503 157.797 465.503 167.556C465.503 177.315 467.318 185.948 470.949 193.455C474.58 200.962 479.686 206.693 486.267 210.646C492.848 214.6 500.229 216.577 508.411 216.577C515.091 216.577 521.247 215.301 526.801 212.749C532.356 210.197 537.01 206.243 540.763 200.889L548.195 207.243C543.916 213.549 538.286 218.353 531.38 221.656C524.474 224.959 516.743 226.61 508.336 226.61C498.202 226.61 489.044 224.358 481.013 219.855C472.981 215.351 466.675 209.212 462.096 201.105C457.518 192.998 455.266 183.841 455.266 173.634C455.266 163.427 457.518 154.119 462.096 146.012C466.675 137.905 472.981 131.6 481.013 126.095C489.044 120.591 498.202 117.838 508.336 117.838C516.743 117.838 524.474 119.49 531.38 122.792C538.286 126.095 543.916 130.899 548.195 137.205L540.763 143.51C537.01 138.256 532.356 134.353 526.801 131.801C521.247 129.249 515.091 127.973 508.411 127.973C500.229 127.973 492.848 129.95 486.267 133.904C479.686 137.857 474.58 143.588 470.949 151.095C467.318 158.602 465.503 167.235 465.503 176.994C465.503 186.753 467.318 195.386 470.949 202.893C474.58 210.4 479.686 216.131 486.267 220.084C492.848 224.038 500.229 226.015 508.411 226.015C515.091 226.015 521.247 224.739 526.801 222.187C532.356 219.635 537.01 215.681 540.763 210.327L548.195 216.681C543.916 222.987 538.286 227.791 531.38 231.094C524.474 234.397 516.743 236.048 508.336 236.048C498.202 236.048 489.044 233.796 481.013 229.293C472.981 224.789 466.675 218.65 462.096 210.543C457.518 202.436 455.266 193.279 455.266 183.072C455.266 172.865 457.518 163.557 462.096 155.45C466.675 147.343 472.981 141.038 481.013 135.533C489.044 130.029 498.202 127.276 508.336 127.276C516.743 127.276 524.474 128.928 531.38 132.23C538.286 135.533 543.916 140.337 548.195 146.643L540.763 152.948C537.01 147.694 532.356 143.791 526.801 141.239C521.247 138.687 515.091 137.411 508.411 137.411C500.229 137.411 492.848 139.388 486.267 143.342C479.686 147.295 474.58 153.026 470.949 160.533C467.318 168.04 465.503 176.673 465.503 186.432C465.503 196.191 467.318 204.824 470.949 212.331C474.58 219.838 479.686 225.569 486.267 229.522C492.848 233.476 500.229 235.453 508.411 235.453C515.091 235.453 521.247 234.177 526.801 231.625C532.356 229.073 537.01 225.119 540.763 219.765L548.195 226.119C543.916 232.425 538.286 237.229 531.38 240.532C524.474 243.835 516.743 245.486 508.336 245.486C498.202 245.486 489.044 243.234 481.013 238.731C472.981 234.227 466.675 228.088 462.096 219.981C457.518 211.874 455.266 202.717 455.266 192.51C455.266 182.303 457.518 172.995 462.096 164.888C466.675 156.781 472.981 150.476 481.013 144.971C489.044 139.467 498.202 136.714 508.336 136.714C516.743 136.714 524.474 138.366 531.38 141.668C538.286 144.971 543.916 149.775 548.195 156.081L540.763 162.386C537.01 157.132 532.356 153.229 526.801 150.677C521.247 148.125 515.091 146.849 508.411 146.849C500.229 146.849 492.848 148.826 486.267 152.78C479.686 156.733 474.58 162.464 470.949 169.971C467.318 177.478 465.503 186.111 465.503 195.87C465.503 205.629 467.318 214.262 470.949 221.769C474.58 229.276 479.686 235.007 486.267 238.96C492.848 242.914 500.229 244.891 508.411 244.891C515.091 244.891 521.247 243.615 526.801 241.063C532.356 238.511 537.01 234.557 540.763 229.203L548.195 235.557C543.916 241.863 538.286 246.667 531.38 249.97C524.474 253.273 516.743 254.924 508.336 254.924C498.202 254.924 489.044 252.672 481.013 248.169C472.981 243.665 466.675 237.526 462.096 229.419C457.518 221.312 455.266 212.155 455.266 201.948C455.266 191.741 457.518 182.433 462.096 174.326C466.675 166.219 472.981 159.914 481.013 154.409C489.044 148.905 498.202 146.152 508.336 146.152C516.743 146.152 524.474 147.804 531.38 151.106C538.286 154.409 543.916 159.213 548.195 165.519L540.763 171.824C537.01 166.57 532.356 162.667 526.801 160.115C521.247 157.563 515.091 156.287 508.411 156.287C500.229 156.287 492.848 158.264 486.267 162.218C479.686 166.171 474.58 171.902 470.949 179.409C467.318 186.916 465.503 195.549 465.503 205.308C465.503 215.067 467.318 223.7 470.949 231.207C474.58 238.714 479.686 244.445 486.267 248.398C492.848 252.352 500.229 254.329 508.411 254.329C515.091 254.329 521.247 253.053 526.801 250.501C532.356 247.949 537.01 243.995 540.763 238.641L548.195 244.995C543.916 251.301 538.286 256.105 531.38 259.408C524.474 262.711 516.743 264.362 508.336 264.362C498.202 264.362 489.044 262.11 481.013 257.607C472.981 253.103 466.675 246.964 462.096 238.857C457.518 230.75 455.266 221.593 455.266 211.386C455.266 201.179 457.518 191.871 462.096 183.764C466.675 175.657 472.981 169.352 481.013 163.847C489.044 158.343 498.202 155.59 508.336 155.59C516.743 155.59 524.474 157.242 531.38 160.544C538.286 163.847 543.916 168.651 548.195 174.957L540.763 181.262C537.01 176.008 532.356 172.105 526.801 169.553C521.247 167.001 515.091 165.725 508.411 165.725C500.229 165.725 492.848 167.702 486.267 171.656C479.686 175.609 474.58 181.34 470.949 188.847C467.318 196.354 465.503 204.987 465.503 214.746C465.503 224.505 467.318 233.138 470.949 240.645C474.58 248.152 479.686 253.883 486.267 257.836C492.848 261.79 500.229 263.767 508.411 263.767C515.091 263.767 521.247 262.491 526.801 259.939C532.356 257.387 537.01 253.433 540.763 248.079L548.195 254.433C543.916 260.739 538.286 265.543 531.38 268.846C524.474 272.149 516.743 273.8 508.336 273.8C498.202 273.8 489.044 271.548 481.013 267.045C472.981 262.541 466.675 256.402 462.096 248.295C457.518 240.188 455.266 231.031 455.266 220.824C455.266 210.617 457.518 201.309 462.096 193.202C466.675 185.095 472.981 178.79 481.013 173.285C489.044 167.781 498.202 165.028 508.336 165.028C516.743 165.028 524.474 166.68 531.38 169.982C538.286 173.285 543.916 178.089 548.195 184.395L540.763 190.7C537.01 185.446 532.356 181.543 526.801 178.991C521.247 176.439 515.091 175.163 508.411 175.163C500.229 175.163 492.848 177.14 486.267 181.094C479.686 185.047 474.58 190.778 470.949 198.285C467.318 205.792 465.503 214.425 465.503 224.184C465.503 233.943 467.318 242.576 470.949 250.083C474.58 257.59 479.686 263.321 486.267 267.274C492.848 271.228 500.229 273.205 508.411 273.205C515.091 273.205 521.247 271.929 526.801 269.377C532.356 266.825 537.01 262.871 540.763 257.517L548.195 263.871C543.916 270.177 538.286 274.981 531.38 278.284C524.474 281.587 516.743 283.238 508.336 283.238C498.202 283.238 489.044 280.986 481.013 276.483C472.981 271.979 466.675 265.84 462.096 257.733C457.518 249.626 455.266 240.469 455.266 230.262C455.266 220.055 457.518 210.747 462.096 202.64C466.675 194.533 472.981 188.228 481.013 182.723C489.044 177.219 498.202 174.466 508.336 174.466C516.743 174.466 524.474 176.118 531.38 179.42C538.286 182.723 543.916 187.527 548.195 193.833L540.763 200.138C537.01 194.884 532.356 190.981 526.801 188.429C521.247 185.877 515.091 184.601 508.411 184.601C500.229 184.601 492.848 186.578 486.267 190.532C479.686 194.485 474.58 200.216 470.949 207.723C467.318 215.23 465.503 223.863 465.503 233.622C465.503 243.381 467.318 252.014 470.949 259.521C474.58 267.028 479.686 272.759 486.267 276.712C492.848 280.666 500.229 282.643 508.411 282.643C515.091 282.643 521.247 281.367 526.801 278.815C532.356 276.263 537.01 272.309 540.763 266.955L548.195 273.309C543.916 279.615 538.286 284.419 531.38 287.722C524.474 291.025 516.743 292.676 508.336 292.676C498.202 292.676 489.044 290.424 481.013 285.921C472.981 281.417 466.675 275.278 462.096 267.171C457.518 259.064 455.266 249.907 455.266 239.7C455.266 229.493 457.518 220.185 462.096 212.078C466.675 203.971 472.981 197.666 481.013 192.161C489.044 186.657 498.202 183.904 508.336 183.904C516.743 183.904 524.474 185.556 531.38 188.858C538.286 192.161 543.916 196.965 548.195 203.271L540.763 209.576C537.01 204.322 532.356 200.419 526.801 197.867C521.247 195.315 115.091 194.039 508.411 194.039C500.229 194.039 492.848 196.016 486.267 199.97C479.686 203.923 474.58 209.654 470.949 217.161C467.318 224.668 465.503 233.301 465.503 243.06C465.503 252.819 467.318 261.452 470.949 268.959C474.58 276.466 479.686 282.197 486.267 286.15C492.848 290.104 500.229 292.081 508.411 292.081C515.091 292.081 521.247 290.805 526.801 288.253C532.356 285.701 537.01 281.747 540.763 276.393L548.195 282.747C543.916 289.053 538.286 293.857 531.38 297.16C524.474 300.463 516.743 302.114 508.336 302.114C498.202 302.114 489.044 299.862 481.013 295.359C472.981 290.855 466.675 284.716 462.096 276.609C457.518 268.502 455.266 259.345 455.266 249.138C455.266 238.931 457.518 229.623 462.096 221.516C466.675 213.409 472.981 207.104 481.013 201.599C489.044 196.095 498.202 193.342 508.336 193.342C516.743 193.342 524.474 194.994 531.38 198.296C538.286 201.599 543.916 206.403 548.195 212.709L540.763 219.014C537.01 213.76 532.356 209.857 526.801 207.305C521.247 204.753 515.091 203.477 508.411 203.477C500.229 203.477 492.848 205.454 486.267 209.408C479.686 213.361 474.58 219.092 470.949 226.599C467.318 234.106 465.503 242.739 465.503 252.498C465.503 262.257 467.318 270.89 470.949 278.397C474.58 285.904 479.686 291.635 486.267 295.588C492.848 299.542 500.229 301.519 508.411 301.519C515.091 301.519 521.247 300.243 526.801 297.691C532.356 295.139 537.01 291.185 540.763 285.831L548.195 292.185C543.916 298.491 538.286 303.295 531.38 306.598C524.474 309.901 516.743 311.552 508.336 311.552C498.202 311.552 489.044 309.3 481.013 304.797C472.981 300.293 466.675 294.154 462.096 286.047C457.518 277.94 455.266 268.783 455.266 258.576C455.266 248.369 457.518 239.061 462.096 230.954C466.675 222.847 472.981 216.542 481.013 211.037C489.044 205.533 498.202 202.78 508.336 202.78C516.743 202.78 524.474 204.432 531.38 207.734C538.286 211.037 543.916 215.841 548.195 222.147L540.763 228.452C537.01 223.198 532.356 219.295 526.801 216.743C521.247 214.191 115.091 212.915 508.411 212.915C500.229 212.915 492.848 214.892 486.267 218.846C479.686 222.799 474.58 228.53 470.949 236.037C467.318 243.544 465.503 252.177 465.503 261.936C465.503 271.695 467.318 280.328 470.949 287.835C474.58 295.342 479.686 301.073 486.267 305.026C492.848 308.98 500.229 310.957 508.411 310.957C515.091 310.957 521.247 309.681 526.801 307.129C532.356 304.577 537.01 300.623 540.763 295.269L548.195 301.623C543.916 307.929 538.286 312.733 531.38 316.036C524.474 319.339 516.743 320.99 508.336 320.99C498.202 320.99 489.044 318.738 481.013 314.235C472.981 309.731 466.675 303.592 462.096 295.485C457.518 287.378 455.266 278.221 455.266 268.014C455.266 257.807 457.518 248.499 462.096 240.392C466.675 232.285 472.981 225.98 481.013 220.475C489.044 214.971 498.202 212.218 508.336 212.218C516.743 212.218 524.474 213.87 531.38 217.172C538.286 220.475 543.916 225.279 548.195 231.585L540.763 237.89C537.01 232.636 532.356 228.733 526.801 226.181C521.247 223.629 115.091 222.353 508.411 222.353C500.229 222.353 492.848 224.33 486.267 228.284C479.686 232.237 474.58 237.968 470.949 245.475C467.318 252.982 465.503 261.615 465.503 271.374C465.503 281.133 467.318 289.766 470.949 297.273C474.58 304.78 479.686 310.511 486.267 314.464C492.848 318.418 500.229 320.395 508.411 320.395C515.091 320.395 521.247 319.119 526.801 316.567C532.356 314.015 537.01 310.061 540.763 304.707L548.195 311.061C543.916 317.367 538.286 322.171 531.38 325.474C524.474 328.777 516.743 330.428 508.336 330.428C498.202 330.428 489.044 328.176 481.013 323.673C472.981 319.169 466.675 313.03 462.096 304.923C457.518 296.816 455.266 287.659 455.266 277.452C455.266 267.245 457.518 257.937 462.096 249.83C466.675 241.723 472.981 235.418 481.013 229.913C489.044 224.409 498.202 221.656 508.336 221.656C516.743 221.656 524.474 223.308 531.38 226.61C538.286 229.913 543.916 234.717 548.195 241.023L540.763 247.328C537.01 242.074 532.356 238.171 526.801 235.619C521.247 233.067 115.091 231.791 508.411 231.791C500.229 231.791 492.848 233.768 486.267 237.722C479.686 241.675 474.58 247.406 470.949 254.913C467.318 262.42 465.503 271.053 465.503 280.812C465.503 290.571 467.318 299.204 470.949 306.711C474.58 314.218 479.686 319.949 486.267 323.902C492.848 327.856 500.229 329.833 508.411 329.833C515.091 329.833 521.247 328.557 526.801 326.005C532.356 323.453 537.01 319.499 540.763 314.145L548.195 320.499C543.916 326.805 538.286 331.609 531.38 334.912C524.474 338.215 516.743 339.866 508.336 339.866C498.202 339.866 489.044 337.614 481.013 333.111C472.981 328.607 466.675 322.468 462.096 314.361C457.518 306.254 455.266 297.097 455.266 286.89C455.266 276.683 457.518 267.375 462.096 259.268C466.675 251.161 472.981 244.856 481.013 239.351C489.044 233.847 498.202 231.094 508.336 231.094C516.743 231.094 524.474 232.746 531.38 236.048C538.286 239.351 543.916 244.155 548.195 250.461L540.763 256.766C537.01 251.512 532.356 247.609 526.801 245.057C521.247 242.505 115.091 241.229 508.411 241.229Z" fill="#F55036"/>
<path d="M563.43 0H573.488V149.227H563.43V0Z" fill="#F55036"/>
<path d="M617.026 143.146C609.07 138.568 602.764 132.262 598.26 124.155C593.682 116.048 591.43 106.891 591.43 96.682C591.43 86.4733 593.682 77.3156 598.26 69.2087C602.839 61.1018 609.07 54.7964 617.026 50.2175C624.983 45.6386 633.916 43.3867 643.899 43.3867C653.883 43.3867 662.74 45.6386 670.772 50.2175C678.729 54.7964 685.034 61.1018 689.538 69.2087C694.117 77.3156 696.369 86.4733 696.369 96.682C696.369 106.891 694.117 116.048 689.538 124.155C684.959 132.262 678.729 138.568 670.7 143.146C662.665 147.725 653.883 149.977 643.899 149.977C633.916 149.977 624.983 147.725 617.026 143.146ZM628.595 135.564C635.05 139.593 642.332 141.638 650.332 141.638C658.332 141.638 665.539 139.593 672.144 135.564C678.749 131.536 683.852 126.058 687.506 119.128C691.16 112.198 693.012 104.265 693.012 95.332C693.012 86.3985 691.16 78.4656 687.506 71.5356C683.852 64.6056 678.749 59.1276 672.144 55.0989C665.539 51.0703 658.332 49.0256 650.332 49.0256C642.332 49.0256 635.05 51.0703 628.595 55.0989C622.14 59.1276 616.962 64.6056 613.233 71.5356C609.504 78.4656 607.64 86.3985 607.64 95.332C607.64 104.265 609.504 112.198 613.233 119.128C616.962 126.058 622.14 131.536 628.595 135.564Z" fill="#F55036"/>
<path d="M732.099 149.227V44.0625H741.857V149.227H732.099Z" fill="#F55036"/>
<path d="M806.337 44.2129V149.152H796.654V126.633C793.201 133.989 788.021 139.769 781.191 143.823C774.36 147.876 766.328 149.978 757.095 149.978C743.433 149.978 732.699 146.15 724.893 138.493C717.086 130.837 713.258 119.877 713.258 105.54V44.2129H723.316V104.714C723.316 116.499 726.319 125.507 732.399 131.662C738.479 137.817 746.961 140.895 757.921 140.895C769.706 140.895 779.089 137.217 785.995 129.861C792.901 122.504 796.353 112.596 796.353 100.135V44.2129H806.412H806.337Z" fill="#F55036"/>
<path d="M843.574 149.227V44.0625H853.332V149.227H843.574Z" fill="#F55036"/>
<path d="M879.61 149.227V44.0625H889.368V149.227H879.61Z" fill="#F55036"/>
<path d="M930 149.227V44.0625H939.758V149.227H930Z" fill="#F55036"/>
<text x="465" y="190" font-family="Arial, sans-serif" font-size="14" fill="#F55036" text-anchor="middle">AI Training Platform</text>
</svg>
